<?xml version="1.0" encoding="utf-8"?>
<!-- Generator: Adobe Illustrator 16.0.3, SVG Export Plug-In . SVG Version: 6.00 Build 0)  -->
<!DOCTYPE svg PUBLIC "-//W3C//DTD SVG 1.1//EN" "http://www.w3.org/Graphics/SVG/1.1/DTD/svg11.dtd">
<svg version="1.1" id="Layer_1" xmlns="http://www.w3.org/2000/svg" xmlns:xlink="http://www.w3.org/1999/xlink" x="0px" y="0px"
	 width="792px" height="612px" viewBox="0 0 792 612" enable-background="new 0 0 792 612" xml:space="preserve">
<g>
	<g>
		<line fill="none" stroke="#ED1C24" stroke-miterlimit="10" x1="409" y1="425.612" x2="409" y2="253.992"/>
		<g>
			<polygon fill="#ED1C24" points="413.986,255.451 409,246.816 404.014,255.451 			"/>
		</g>
	</g>
</g>
<g>
	<g>
		<line fill="none" stroke="#ED1C24" stroke-miterlimit="10" x1="456" y1="522.994" x2="456" y2="253.992"/>
		<g>
			<polygon fill="#ED1C24" points="460.986,255.451 456,246.816 451.014,255.451 			"/>
		</g>
	</g>
</g>
<g>
	<rect x="22.5" y="43.071" fill="#FFFFFF" stroke="#000000" stroke-miterlimit="10" width="131" height="78.5"/>
	<rect x="22.5" y="58.571" fill="none" width="131" height="63"/>
	<text transform="matrix(1 0 0 1 25.9429 79.0913)"><tspan x="0" y="0" font-family="'MyriadPro-Regular'" font-size="12">CSV file with date and R - </tspan><tspan x="9.732" y="14.4" font-family="'MyriadPro-Regular'" font-size="12">squared valus for the </tspan><tspan x="13.956" y="28.8" font-family="'MyriadPro-Regular'" font-size="12">lab/gain regression</tspan></text>
</g>
<g>
	<g>
		<line fill="none" stroke="#ED1C24" stroke-miterlimit="10" x1="432.996" y1="123.755" x2="432.996" y2="159.079"/>
		<g>
			<polygon fill="#ED1C24" points="428.01,157.62 432.996,166.255 437.982,157.62 			"/>
		</g>
	</g>
</g>
<rect x="129.5" y="6.5" fill="none" width="533" height="31.5"/>
<text transform="matrix(1 0 0 1 147.124 23.54)" font-family="'MyriadPro-Regular'" font-size="24">Schematic of the decision tree for CHL gain values</text>
<g>
	<rect x="369.496" y="43.071" fill="#FFFFFF" stroke="#000000" stroke-miterlimit="10" width="131" height="78.5"/>
	<rect x="369.496" y="59.755" fill="none" width="131" height="63"/>
	<text transform="matrix(1 0 0 1 391.583 80.2749)" font-family="'MyriadPro-Regular'" font-size="12">R</text>
	<text transform="matrix(0.583 0 0 0.583 398.0391 76.2788)" font-family="'MyriadPro-Regular'" font-size="12">2 </text>
	<text transform="matrix(1 0 0 1 403.1113 80.2749)" font-family="'MyriadPro-Regular'" font-size="12"> for Gain0 &gt; 0.8</text>
</g>
<g>
	<rect x="542.994" y="45.888" fill="#FFFFFF" stroke="#000000" stroke-miterlimit="10" width="131" height="78.5"/>
	<rect x="542.994" y="58.571" fill="none" width="131" height="63"/>
	<text transform="matrix(1 0 0 1 554.4951 79.0913)"><tspan x="0" y="0" font-family="'MyriadPro-Regular'" font-size="12">Values corrected with </tspan><tspan x="12.077" y="14.4" font-family="'MyriadPro-Regular'" font-size="12">Gain0 regression</tspan></text>
</g>
<g>
	<g>
		<line fill="none" stroke="#39B54A" stroke-miterlimit="10" x1="500.496" y1="83.321" x2="535.818" y2="83.626"/>
		<g>
			<polygon fill="#39B54A" points="534.316,88.6 542.994,83.688 534.402,78.628 			"/>
		</g>
	</g>
</g>
<g>
	<rect x="369.496" y="166.255" fill="#FFFFFF" stroke="#000000" stroke-miterlimit="10" width="131" height="78.5"/>
	<rect x="369.496" y="179.143" fill="none" width="131" height="63"/>
	<text transform="matrix(1 0 0 1 392.3125 199.6626)" font-family="'MyriadPro-Regular'" font-size="12">Uncorrected CHL</text>
</g>
<g>
	<rect x="195.998" y="41" fill="#FFFFFF" stroke="#000000" stroke-miterlimit="10" width="131" height="78.5"/>
	<rect x="195.998" y="58.979" fill="none" width="131" height="63"/>
	<text transform="matrix(1 0 0 1 202.897 79.4995)" font-family="'MyriadPro-Regular'" font-size="12">Only Gain0 Regression?</text>
</g>
<g>
	<g>
		<line fill="none" stroke="#000000" stroke-miterlimit="10" x1="153.5" y1="84.771" x2="188.822" y2="85.076"/>
		<g>
			<polygon points="187.32,90.049 195.998,85.138 187.406,80.077 			"/>
		</g>
	</g>
</g>
<g>
	<g>
		<line fill="none" stroke="#39B54A" stroke-miterlimit="10" x1="326.998" y1="83.505" x2="362.32" y2="83.81"/>
		<g>
			<polygon fill="#39B54A" points="360.818,88.784 369.496,83.872 360.904,78.812 			"/>
		</g>
	</g>
</g>
<g>
	<g>
		<line fill="none" stroke="#ED1C24" stroke-miterlimit="10" x1="261.498" y1="123.755" x2="261.498" y2="285.304"/>
		<g>
			<polygon fill="#ED1C24" points="256.512,283.845 261.498,292.479 266.484,283.845 			"/>
		</g>
	</g>
</g>
<g>
	<rect x="195.998" y="292.479" fill="#FFFFFF" stroke="#000000" stroke-miterlimit="10" width="131" height="78.5"/>
	<rect x="195.998" y="307.979" fill="none" width="131" height="63"/>
	<text transform="matrix(1 0 0 1 210.1929 328.5)" font-family="'MyriadPro-Regular'" font-size="12">uncorrected CHL &lt; 5</text>
</g>
<g>
	<rect x="195.998" y="425.979" fill="#FFFFFF" stroke="#000000" stroke-miterlimit="10" width="131" height="78.5"/>
	<rect x="195.998" y="441.479" fill="none" width="131" height="63"/>
	<text transform="matrix(1 0 0 1 207.1152 462)" font-family="'MyriadPro-Regular'" font-size="12">uncorrected CHL &lt; 45</text>
</g>
<g>
	<g>
		<line fill="none" stroke="#ED1C24" stroke-miterlimit="10" x1="261.498" y1="369.479" x2="261.498" y2="418.804"/>
		<g>
			<polygon fill="#ED1C24" points="256.512,417.345 261.498,425.979 266.484,417.345 			"/>
		</g>
	</g>
</g>
<g>
	<g>
		<line fill="none" stroke="#39B54A" stroke-miterlimit="10" x1="326.998" y1="328.571" x2="362.32" y2="328.876"/>
		<g>
			<polygon fill="#39B54A" points="360.818,333.851 369.496,328.938 360.904,323.878 			"/>
		</g>
	</g>
</g>
<g>
	<rect x="544.994" y="289.688" fill="#FFFFFF" stroke="#000000" stroke-miterlimit="10" width="131" height="78.5"/>
	<rect x="542.994" y="304.821" fill="none" width="131" height="63"/>
	<text transform="matrix(1 0 0 1 554.4951 325.3418)"><tspan x="0" y="0" font-family="'MyriadPro-Regular'" font-size="12">Values corrected with </tspan><tspan x="5.922" y="14.399" font-family="'MyriadPro-Regular'" font-size="12">Gain100 regression</tspan></text>
</g>
<g>
	<g>
		<line fill="none" stroke="#39B54A" stroke-miterlimit="10" x1="500.496" y1="328.388" x2="535.818" y2="328.692"/>
		<g>
			<polygon fill="#39B54A" points="534.316,333.667 542.994,328.755 534.402,323.694 			"/>
		</g>
	</g>
</g>
<g>
	<g>
		<line fill="none" stroke="#ED1C24" stroke-miterlimit="10" x1="434.996" y1="289.321" x2="434.996" y2="253.998"/>
		<g>
			<polygon fill="#ED1C24" points="439.982,255.457 434.996,246.821 430.01,255.457 			"/>
		</g>
	</g>
</g>
<g>
	<rect x="369.496" y="425.979" fill="#FFFFFF" stroke="#000000" stroke-miterlimit="10" width="131" height="78.5"/>
	<rect x="369.496" y="441.479" fill="none" width="131" height="63"/>
	<text transform="matrix(1 0 0 1 388.5049 462)" font-family="'MyriadPro-Regular'" font-size="12">R</text>
	<text transform="matrix(0.583 0 0 0.583 394.9609 458.0039)" font-family="'MyriadPro-Regular'" font-size="12">2 </text>
	<text transform="matrix(1 0 0 1 400.0332 462)" font-family="'MyriadPro-Regular'" font-size="12"> for Gain10 &gt; 0.8</text>
</g>
<g>
	<g>
		<line fill="none" stroke="#ED1C24" stroke-miterlimit="10" x1="310.248" y1="562.25" x2="359.572" y2="562.25"/>
		<g>
			<polygon fill="#ED1C24" points="358.113,567.236 366.748,562.25 358.113,557.264 			"/>
		</g>
	</g>
</g>
<g>
	<g>
		<line fill="none" stroke="#39B54A" stroke-miterlimit="10" x1="326.998" y1="464.862" x2="362.32" y2="465.167"/>
		<g>
			<polygon fill="#39B54A" points="360.818,470.142 369.496,465.229 360.904,460.169 			"/>
		</g>
	</g>
</g>
<g>
	<g>
		<line fill="none" stroke="#39B54A" stroke-miterlimit="10" x1="500.497" y1="464.862" x2="535.819" y2="465.167"/>
		<g>
			<polygon fill="#39B54A" points="534.317,470.142 542.995,465.229 534.403,460.169 			"/>
		</g>
	</g>
</g>
<g>
	<rect x="544.994" y="425.612" fill="#FFFFFF" stroke="#000000" stroke-miterlimit="10" width="131" height="78.5"/>
	<rect x="544.994" y="441.112" fill="none" width="131" height="63"/>
	<text transform="matrix(1 0 0 1 556.4951 461.6328)"><tspan x="0" y="0" font-family="'MyriadPro-Regular'" font-size="12">Values corrected with </tspan><tspan x="9" y="14.399" font-family="'MyriadPro-Regular'" font-size="12">Gain10 regression</tspan></text>
</g>
<line fill="none" x1="261.498" y1="504.479" x2="261.498" y2="535"/>
<g>
	<rect x="369.496" y="523" fill="#FFFFFF" stroke="#000000" stroke-miterlimit="10" width="131" height="78.5"/>
	<rect x="369.496" y="538.5" fill="none" width="131" height="63"/>
	<text transform="matrix(1 0 0 1 391.583 559.0195)" font-family="'MyriadPro-Regular'" font-size="12">R</text>
	<text transform="matrix(0.583 0 0 0.583 398.0391 555.0234)" font-family="'MyriadPro-Regular'" font-size="12">2 </text>
	<text transform="matrix(1 0 0 1 403.1113 559.0195)" font-family="'MyriadPro-Regular'" font-size="12"> for Gain1 &gt; 0.8</text>
</g>
<line fill="none" stroke="#ED1C24" stroke-miterlimit="10" x1="261.498" y1="504.479" x2="310.248" y2="562.25"/>
<g>
	<rect x="542.994" y="523" fill="#FFFFFF" stroke="#000000" stroke-miterlimit="10" width="131" height="78.5"/>
	<rect x="544.994" y="538.5" fill="none" width="131" height="63"/>
	<text transform="matrix(1 0 0 1 556.4951 559.0195)"><tspan x="0" y="0" font-family="'MyriadPro-Regular'" font-size="12">Values corrected with </tspan><tspan x="12.077" y="14.4" font-family="'MyriadPro-Regular'" font-size="12">Gain1 regression</tspan></text>
</g>
<g>
	<g>
		<line fill="none" stroke="#39B54A" stroke-miterlimit="10" x1="500.496" y1="557.4" x2="535.818" y2="557.705"/>
		<g>
			<polygon fill="#39B54A" points="534.316,562.68 542.994,557.768 534.402,552.707 			"/>
		</g>
	</g>
</g>
<g>
	<rect x="369.496" y="289.505" fill="#FFFFFF" stroke="#000000" stroke-miterlimit="10" width="131" height="78.5"/>
	<rect x="369.496" y="305.005" fill="none" width="131" height="63"/>
	<text transform="matrix(1 0 0 1 385.4272 325.5254)" font-family="'MyriadPro-Regular'" font-size="12">R</text>
	<text transform="matrix(0.583 0 0 0.583 391.8833 321.5293)" font-family="'MyriadPro-Regular'" font-size="12">2 </text>
	<text transform="matrix(1 0 0 1 396.9551 325.5254)" font-family="'MyriadPro-Regular'" font-size="12"> for Gain100 &gt; 0.8</text>
</g>
<g>
	<g>
		<line fill="none" stroke="#39B54A" stroke-miterlimit="10" x1="26.502" y1="166.071" x2="61.824" y2="166.376"/>
		<g>
			<polygon fill="#39B54A" points="60.322,171.35 69,166.438 60.408,161.378 			"/>
		</g>
	</g>
</g>
<g>
	<g>
		<line fill="none" stroke="#ED1C24" stroke-miterlimit="10" x1="26.502" y1="190.726" x2="61.824" y2="191.031"/>
		<g>
			<polygon fill="#ED1C24" points="60.322,196.004 69,191.093 60.408,186.032 			"/>
		</g>
	</g>
</g>
<rect x="69" y="161.643" fill="none" width="51" height="17.5"/>
<text transform="matrix(0.583 0 0 0.583 79.291 170.6904)" fill="#39B54A" font-family="'MyriadPro-Regular'" font-size="24">TRUE</text>
<rect x="69" y="185.367" fill="none" width="51" height="17.5"/>
<text transform="matrix(0.583 0 0 0.583 76.6187 194.415)" fill="#ED1C24" font-family="'MyriadPro-Regular'" font-size="24">FALSE</text>
</svg>
